{
.appVersion = "1230";
DisplayStrings = (
"/yod-hb",
"/alef-hb/bet-hb/gimel-hb/dalet-hb/he-hb/vav-hb/zayin-hb/het-hb/tet-hb/yod-hb/finalkaf-hb/kaf-hb/lamed-hb/finalmem-hb/mem-hb/finalnun-hb/nun-hb/samekh-hb/ayin-hb/finalpe-hb/pe-hb/finaltsadi-hb/tsadi-hb/qof-hb/resh-hb/shin-hb/tav-hb \012/ayin-hb/tet-hb/lamed-hb/finalpe-hb/alef-hb/bet-hb/qof-hb/nun-hb/samekh-hb/dalet-hb/resh-hb/finalkaf-hb/mem-hb/zayin-hb/gimel-hb/finalnun-hb/shin-hb/he-hb/tav-hb/pe-hb/vav-hb/tsadi-hb/finaltsadi-hb/kaf-hb/yod-hb/het-hb/finalmem-hb",
"/alef-hb"
);
date = "2019-07-18 22:28:03 +0000";
familyName = CalligrapherFont;
fontMaster = (
{
alignmentZones = (
"{500, 15}",
"{0, -40}"
);
ascender = 750;
capHeight = 750;
customParameters = (
{
name = shoulderHeight;
value = "410";
}
);
descender = -250;
guideLines = (
{
angle = 45;
position = "{251, 158}";
},
{
angle = 60;
position = "{241, 0}";
},
{
angle = 60;
position = "{429, 0}";
}
);
id = "4B1D62E6-7BFF-465E-AFDB-BC9AB18DC79E";
xHeight = 500;
}
);
glyphs = (
{
glyphname = "alef-hb";
lastChange = "2019-10-03 20:55:14 +0000";
layers = (
{
backgroundImage = {
crop = "{{0, 0}, {754, 1000}}";
imagePath = "../../../../fontDesign/Calligraphy/Calligraphy in Glyphs/img/img/alef-hb.jpg";
locked = "1";
transform = "{1, 0, 0, 1, -70, -230}";
};
layerId = "4B1D62E6-7BFF-465E-AFDB-BC9AB18DC79E";
paths = (
{
closed = 1;
nodes = (
"281 296 OFFCURVE",
"408 163 OFFCURVE",
"492 -10 CURVE",
"547 88 LINE",
"456 257 OFFCURVE",
"333 380 OFFCURVE",
"147 534 CURVE",
"92 444 LINE"
);
},
{
closed = 1;
nodes = (
"465 399 OFFCURVE",
"460 320 OFFCURVE",
"406 226 CURVE",
"498 303 LINE",
"547 392 OFFCURVE",
"543 471 OFFCURVE",
"504 550 CURVE",
"426 480 LINE"
);
},
{
closed = 1;
nodes = (
"85 184 OFFCURVE",
"93 60 OFFCURVE",
"151 0 CURVE",
"210 89 LINE",
"162 189 OFFCURVE",
"177 300 OFFCURVE",
"258 397 CURVE",
"139 283 LINE"
);
},
{
closed = 1;
nodes = (
"231 0 LINE",
"283 90 LINE",
"114 90 LINE",
"62 0 LINE"
);
}
);
width = 610;
}
);
unicode = 05D0;
},
{
glyphname = "bet-hb";
lastChange = "2019-10-03 20:55:09 +0000";
layers = (
{
backgroundImage = {
crop = "{{0, 0}, {601, 1000}}";
imagePath = "../../../../fontDesign/Calligraphy/Calligraphy in Glyphs/img/img/bet-hb.jpg";
locked = "1";
transform = "{1, 0, 0, 1, 0, -262}";
};
layerId = "4B1D62E6-7BFF-465E-AFDB-BC9AB18DC79E";
paths = (
{
closed = 1;
nodes = (
"167 568 LINE",
"126 500 LINE",
"145 420 LINE",
"186 488 LINE"
);
},
{
closed = 1;
nodes = (
"284 410 LINE SMOOTH",
"375 410 OFFCURVE",
"388 386 OFFCURVE",
"388 248 CURVE SMOOTH",
"388 12 LINE",
"464 137 LINE",
"464 353 LINE SMOOTH",
"464 454 OFFCURVE",
"426 500 OFFCURVE",
"332 500 CURVE SMOOTH",
"126 500 LINE",
"73 410 LINE"
);
},
{
closed = 1;
nodes = (
"493 0 LINE",
"545 90 LINE",
"107 90 LINE",
"55 0 LINE"
);
}
);
width = 573;
}
);
unicode = 05D1;
},
{
glyphname = "gimel-hb";
lastChange = "2019-10-03 20:58:05 +0000";
layers = (
{
backgroundImage = {
crop = "{{0, 0}, {427, 1000}}";
imagePath = "../../../../fontDesign/Calligraphy/Calligraphy in Glyphs/img/img/gimel-hb.jpg";
locked = "1";
transform = "{1, 0, 0, 1, 0, -233}";
};
layerId = "4B1D62E6-7BFF-465E-AFDB-BC9AB18DC79E";
paths = (
{
closed = 1;
nodes = (
"183 386 LINE SMOOTH",
"237 345 OFFCURVE",
"255 317 OFFCURVE",
"269 170 CURVE SMOOTH",
"286 -15 LINE",
"342 82 LINE",
"326 273 LINE SMOOTH",
"316 390 OFFCURVE",
"294 425 OFFCURVE",
"239 468 CURVE SMOOTH",
"145 542 LINE",
"94 453 LINE"
);
},
{
closed = 1;
nodes = (
"136 -12 OFFCURVE",
"220 41 OFFCURVE",
"293 202 CURVE",
"299 259 LINE",
"227 142 OFFCURVE",
"166 102 OFFCURVE",
"97 92 CURVE",
"59 -12 LINE"
);
}
);
width = 427;
}
);
unicode = 05D2;
},
{
glyphname = "dalet-hb";
lastChange = "2019-10-03 20:58:13 +0000";
layers = (
{
backgroundImage = {
crop = "{{0, 0}, {618, 1000}}";
imagePath = "../../../../fontDesign/Calligraphy/Calligraphy in Glyphs/img/img/dalet-hb.jpg";
locked = "1";
transform = "{1, 0, 0, 1, -25, -240}";
};
layerId = "4B1D62E6-7BFF-465E-AFDB-BC9AB18DC79E";
paths = (
{
closed = 1;
nodes = (
"144 568 LINE",
"103 500 LINE",
"122 420 LINE",
"163 488 LINE"
);
},
{
closed = 1;
nodes = (
"467 410 LINE",
"538 499 LINE",
"103 500 LINE",
"50 410 LINE"
);
},
{
closed = 1;
nodes = (
"376 -38 LINE",
"452 37 LINE",
"452 568 LINE",
"376 478 LINE"
);
}
);
width = 593;
}
);
unicode = 05D3;
},
{
glyphname = "he-hb";
lastChange = "2019-10-03 20:55:05 +0000";
layers = (
{
backgroundImage = {
crop = "{{0, 0}, {676, 1000}}";
imagePath = "../../../../fontDesign/Calligraphy/Calligraphy in Glyphs/img/img/he-hb.jpg";
locked = "1";
transform = "{1, 0, 0, 1, -50, -262}";
};
layerId = "4B1D62E6-7BFF-465E-AFDB-BC9AB18DC79E";
paths = (
{
closed = 1;
nodes = (
"167 568 LINE",
"126 500 LINE",
"145 420 LINE",
"186 488 LINE"
);
},
{
closed = 1;
nodes = (
"344 410 LINE SMOOTH",
"454 410 OFFCURVE",
"468 386 OFFCURVE",
"468 278 CURVE SMOOTH",
"468 -38 LINE",
"544 38 LINE",
"544 353 LINE SMOOTH",
"544 454 OFFCURVE",
"503 500 OFFCURVE",
"392 500 CURVE SMOOTH",
"126 500 LINE",
"73 410 LINE"
);
},
{
closed = 1;
nodes = (
"102 126 OFFCURVE",
"101 44 OFFCURVE",
"101 -38 CURVE",
"177 37 LINE",
"177 124 OFFCURVE",
"178 211 OFFCURVE",
"185 298 CURVE",
"109 208 LINE"
);
}
);
width = 630;
}
);
unicode = 05D4;
},
{
glyphname = "vav-hb";
lastChange = "2019-10-03 19:18:26 +0000";
layers = (
{
backgroundImage = {
crop = "{{0, 0}, {308, 1000}}";
imagePath = "../../../../fontDesign/Calligraphy/Calligraphy in Glyphs/img/img/vav-hb.jpg";
locked = "1";
transform = "{1, 0, 0, 1, 0, -260}";
};
layerId = "4B1D62E6-7BFF-465E-AFDB-BC9AB18DC79E";
paths = (
{
closed = 1;
nodes = (
"107 413 LINE SMOOTH",
"143 381 OFFCURVE",
"148 364 OFFCURVE",
"148 288 CURVE SMOOTH",
"148 -36 LINE",
"224 40 LINE",
"224 340 LINE SMOOTH",
"224 432 OFFCURVE",
"209 468 OFFCURVE",
"175 496 CURVE SMOOTH",
"105 552 LINE",
"52 461 LINE"
);
}
);
width = 312;
}
);
unicode = 05D5;
},
{
glyphname = "zayin-hb";
lastChange = "2019-10-03 20:55:00 +0000";
layers = (
{
backgroundImage = {
crop = "{{0, 0}, {429, 1000}}";
imagePath = "../../../../fontDesign/Calligraphy/Calligraphy in Glyphs/img/img/zayin-hb.jpg";
locked = "1";
transform = "{1, 0, 0, 1, -30, -230}";
};
layerId = "4B1D62E6-7BFF-465E-AFDB-BC9AB18DC79E";
paths = (
{
closed = 1;
nodes = (
"142 413 OFFCURVE",
"210 366 OFFCURVE",
"271 307 CURVE",
"325 395 LINE",
"262 455 OFFCURVE",
"196 507 OFFCURVE",
"125 551 CURVE",
"70 456 LINE"
);
},
{
closed = 1;
nodes = (
"268 448 OFFCURVE",
"220 456 OFFCURVE",
"176 419 CURVE",
"120 321 LINE",
"163 366 OFFCURVE",
"196 363 OFFCURVE",
"271 307 CURVE",
"325 395 LINE"
);
},
{
closed = 1;
nodes = (
"90 266 OFFCURVE",
"100 222 OFFCURVE",
"126 148 CURVE SMOOTH",
"190 -37 LINE",
"245 58 LINE",
"181 243 LINE SMOOTH",
"167 284 OFFCURVE",
"142 326 OFFCURVE",
"176 419 CURVE",
"121 324 LINE"
);
}
);
width = 390;
}
);
unicode = 05D6;
},
{
glyphname = "het-hb";
lastChange = "2019-10-03 20:57:53 +0000";
layers = (
{
backgroundImage = {
crop = "{{0, 0}, {671, 1000}}";
imagePath = "../../../../fontDesign/Calligraphy/Calligraphy in Glyphs/img/img/het-hb.jpg";
locked = "1";
transform = "{1, 0, 0, 1, -64, -258}";
};
layerId = "4B1D62E6-7BFF-465E-AFDB-BC9AB18DC79E";
paths = (
{
closed = 1;
nodes = (
"174 568 LINE",
"133 500 LINE",
"152 420 LINE",
"193 488 LINE"
);
},
{
closed = 1;
nodes = (
"350 410 LINE SMOOTH",
"460 410 OFFCURVE",
"474 386 OFFCURVE",
"474 278 CURVE SMOOTH",
"474 -38 LINE",
"550 38 LINE",
"550 353 LINE SMOOTH",
"550 454 OFFCURVE",
"509 500 OFFCURVE",
"398 500 CURVE SMOOTH",
"133 500 LINE",
"80 410 LINE"
);
},
{
closed = 1;
nodes = (
"116 311 OFFCURVE",
"129 141 OFFCURVE",
"118 -38 CURVE",
"194 37 LINE",
"205 228 OFFCURVE",
"193 388 OFFCURVE",
"164 519 CURVE",
"80 410 LINE"
);
}
);
width = 630;
}
);
unicode = 05D7;
},
{
glyphname = "tet-hb";
lastChange = "2019-10-03 20:59:18 +0000";
layers = (
{
backgroundImage = {
crop = "{{0, 0}, {742, 1000}}";
imagePath = "../../../../fontDesign/Calligraphy/Calligraphy in Glyphs/img/img/tet-hb.jpg";
locked = "1";
transform = "{1, 0, 0, 1, -40, -240}";
};
layerId = "4B1D62E6-7BFF-465E-AFDB-BC9AB18DC79E";
paths = (
{
closed = 1;
nodes = (
"120 379 OFFCURVE",
"111 392 OFFCURVE",
"127 274 CURVE SMOOTH",
"151 98 LINE SMOOTH",
"164 7 OFFCURVE",
"192 -15 OFFCURVE",
"235 -15 CURVE SMOOTH",
"338 -15 OFFCURVE",
"445 39 OFFCURVE",
"518 169 CURVE",
"558 242 LINE",
"459 143 OFFCURVE",
"371 89 OFFCURVE",
"270 89 CURVE SMOOTH",
"231 89 OFFCURVE",
"216 105 OFFCURVE",
"211 158 CURVE SMOOTH",
"193 340 LINE SMOOTH",
"181 459 OFFCURVE",
"174 477 OFFCURVE",
"115 552 CURVE",
"62 461 LINE"
);
},
{
closed = 1;
nodes = (
"343 393 OFFCURVE",
"376 419 OFFCURVE",
"414 419 CURVE SMOOTH",
"464 419 OFFCURVE",
"510 373 OFFCURVE",
"510 264 CURVE SMOOTH",
"510 230 OFFCURVE",
"502 192 OFFCURVE",
"484 153 CURVE",
"558 242 LINE",
"572 277 OFFCURVE",
"578 311 OFFCURVE",
"578 342 CURVE SMOOTH",
"578 461 OFFCURVE",
"517 517 OFFCURVE",
"451 517 CURVE SMOOTH",
"415 517 OFFCURVE",
"382 495 OFFCURVE",
"347 457 CURVE",
"295 339 LINE"
);
}
);
width = 660;
}
);
unicode = 05D8;
},
{
glyphname = "yod-hb";
lastChange = "2019-10-03 20:26:52 +0000";
layers = (
{
backgroundImage = {
crop = "{{0, 0}, {327, 1000}}";
imagePath = "../../../../fontDesign/Calligraphy/Calligraphy in Glyphs/img/img/yod-hb.jpg";
locked = "1";
transform = "{1, 0, 0, 1, -30, -254}";
};
layerId = "4B1D62E6-7BFF-465E-AFDB-BC9AB18DC79E";
paths = (
{
closed = 1;
nodes = (
"121 400 LINE SMOOTH",
"142 379 OFFCURVE",
"149 361 OFFCURVE",
"149 336 CURVE SMOOTH",
"149 301 OFFCURVE",
"131 253 OFFCURVE",
"99 181 CURVE",
"189 259 LINE",
"219 310 OFFCURVE",
"242 363 OFFCURVE",
"242 402 CURVE SMOOTH",
"242 430 OFFCURVE",
"224 452 OFFCURVE",
"192 482 CURVE SMOOTH",
"117 555 LINE",
"42 475 LINE"
);
}
);
width = 287;
}
);
unicode = 05D9;
},
{
glyphname = "finalkaf-hb";
lastChange = "2019-10-03 20:55:19 +0000";
layers = (
{
backgroundImage = {
crop = "{{0, 0}, {591, 1000}}";
imagePath = "../../../../fontDesign/Calligraphy/Calligraphy in Glyphs/img/img/finalkaf-hb.jpg";
locked = "1";
transform = "{1, 0, 0, 1, -20, -234}";
};
layerId = "4B1D62E6-7BFF-465E-AFDB-BC9AB18DC79E";
paths = (
{
closed = 1;
nodes = (
"147 568 LINE",
"106 500 LINE",
"125 420 LINE",
"166 488 LINE"
);
},
{
closed = 1;
nodes = (
"442 410 LINE",
"513 499 LINE",
"106 500 LINE",
"53 410 LINE"
);
},
{
closed = 1;
nodes = (
"351 -228 LINE",
"427 -153 LINE",
"427 568 LINE",
"351 478 LINE"
);
}
);
width = 570;
}
);
unicode = 05DA;
},
{
glyphname = "kaf-hb";
lastChange = "2019-10-03 20:57:56 +0000";
layers = (
{
backgroundImage = {
crop = "{{0, 0}, {557, 1000}}";
imagePath = "../../../../fontDesign/Calligraphy/Calligraphy in Glyphs/img/img/kaf-hb.jpg";
locked = "1";
transform = "{1, 0, 0, 1, 0, -253}";
};
layerId = "4B1D62E6-7BFF-465E-AFDB-BC9AB18DC79E";
paths = (
{
closed = 1;
nodes = (
"167 568 LINE",
"126 500 LINE",
"145 420 LINE",
"186 488 LINE"
);
},
{
closed = 1;
nodes = (
"244 410 LINE SMOOTH",
"364 410 OFFCURVE",
"398 386 OFFCURVE",
"398 248 CURVE SMOOTH",
"398 179 OFFCURVE",
"398 101 OFFCURVE",
"361 14 CURVE",
"437 90 LINE",
"474 176 OFFCURVE",
"474 253 OFFCURVE",
"474 321 CURVE SMOOTH",
"474 452 OFFCURVE",
"413 500 OFFCURVE",
"292 500 CURVE SMOOTH",
"126 500 LINE",
"73 410 LINE"
);
},
{
closed = 1;
nodes = (
"385 0 LINE",
"437 90 LINE",
"107 90 LINE",
"55 0 LINE"
);
}
);
width = 555;
}
);
unicode = 05DB;
},
{
glyphname = "lamed-hb";
lastChange = "2019-10-03 20:57:24 +0000";
layers = (
{
backgroundImage = {
crop = "{{0, 0}, {600, 1000}}";
imagePath = "../../../../fontDesign/Calligraphy/Calligraphy in Glyphs/img/img/lamed-hb.jpg";
locked = "1";
transform = "{1, 0, 0, 1, 0, -235}";
};
layerId = "4B1D62E6-7BFF-465E-AFDB-BC9AB18DC79E";
paths = (
{
closed = 1;
nodes = (
"70 634 OFFCURVE",
"75 597 OFFCURVE",
"75 559 CURVE SMOOTH",
"75 463 LINE SMOOTH",
"75 425 OFFCURVE",
"99 410 OFFCURVE",
"137 410 CURVE SMOOTH",
"315 410 LINE SMOOTH",
"363 410 OFFCURVE",
"385 400 OFFCURVE",
"385 342 CURVE SMOOTH",
"385 280 OFFCURVE",
"383 238 OFFCURVE",
"366 180 CURVE",
"452 278 LINE",
"467 322 OFFCURVE",
"469 364 OFFCURVE",
"469 410 CURVE SMOOTH",
"469 470 OFFCURVE",
"438 500 OFFCURVE",
"367 500 CURVE SMOOTH",
"179 500 LINE SMOOTH",
"157 500 OFFCURVE",
"151 510 OFFCURVE",
"151 538 CURVE SMOOTH",
"151 649 LINE SMOOTH",
"151 689 OFFCURVE",
"150 724 OFFCURVE",
"119 762 CURVE",
"51 670 LINE"
);
},
{
closed = 1;
nodes = (
"215 12 OFFCURVE",
"317 58 OFFCURVE",
"411 191 CURVE",
"452 278 LINE",
"367 184 OFFCURVE",
"278 123 OFFCURVE",
"152 90 CURVE",
"115 -9 LINE"
);
}
);
width = 530;
}
);
unicode = 05DC;
},
{
glyphname = "finalmem-hb";
lastChange = "2019-10-03 20:57:50 +0000";
layers = (
{
backgroundImage = {
crop = "{{0, 0}, {633, 1000}}";
imagePath = "../../../../fontDesign/Calligraphy/Calligraphy in Glyphs/img/img/finalmem-hb.jpg";
locked = "1";
transform = "{1, 0, 0, 1, 0, -251}";
};
layerId = "4B1D62E6-7BFF-465E-AFDB-BC9AB18DC79E";
paths = (
{
closed = 1;
nodes = (
"167 568 LINE",
"126 500 LINE",
"145 420 LINE",
"186 488 LINE"
);
},
{
closed = 1;
nodes = (
"362 410 LINE SMOOTH",
"472 410 OFFCURVE",
"486 386 OFFCURVE",
"486 278 CURVE SMOOTH",
"486 195 OFFCURVE",
"486 109 OFFCURVE",
"459 15 CURVE",
"535 90 LINE",
"562 184 OFFCURVE",
"562 270 OFFCURVE",
"562 353 CURVE SMOOTH",
"562 454 OFFCURVE",
"521 500 OFFCURVE",
"410 500 CURVE SMOOTH",
"126 500 LINE",
"73 410 LINE"
);
},
{
closed = 1;
nodes = (
"115 74 LINE SMOOTH",
"115 18 OFFCURVE",
"139 0 OFFCURVE",
"187 0 CURVE SMOOTH",
"483 0 LINE",
"535 90 LINE",
"229 90 LINE SMOOTH",
"197 90 OFFCURVE",
"191 103 OFFCURVE",
"191 149 CURVE SMOOTH",
"191 500 LINE",
"115 410 LINE"
);
}
);
width = 634;
}
);
unicode = 05DD;
},
{
glyphname = "mem-hb";
lastChange = "2019-10-03 20:27:39 +0000";
layers = (
{
backgroundImage = {
crop = "{{0, 0}, {756, 1000}}";
imagePath = "../../../../fontDesign/Calligraphy/Calligraphy in Glyphs/img/img/mem-hb.jpg";
locked = "1";
transform = "{1, 0, 0, 1, -40, -230}";
};
layerId = "4B1D62E6-7BFF-465E-AFDB-BC9AB18DC79E";
paths = (
{
closed = 1;
nodes = (
"125 394 OFFCURVE",
"148 354 OFFCURVE",
"148 296 CURVE SMOOTH",
"148 267 OFFCURVE",
"142 246 OFFCURVE",
"134 212 CURVE SMOOTH",
"78 -18 LINE",
"163 60 LINE",
"216 262 LINE SMOOTH",
"223 290 OFFCURVE",
"228 321 OFFCURVE",
"228 351 CURVE SMOOTH",
"228 419 OFFCURVE",
"209 453 OFFCURVE",
"131 548 CURVE",
"61 470 LINE"
);
},
{
closed = 1;
nodes = (
"234 337 OFFCURVE",
"242 386 OFFCURVE",
"307 459 CURVE",
"220 385 LINE",
"193 308 OFFCURVE",
"178 233 OFFCURVE",
"162 160 CURVE",
"216 262 LINE"
);
},
{
closed = 1;
nodes = (
"247 406 OFFCURVE",
"300 445 OFFCURVE",
"353 445 CURVE SMOOTH",
"427 445 OFFCURVE",
"494 358 OFFCURVE",
"494 201 CURVE SMOOTH",
"494 124 OFFCURVE",
"480 68 OFFCURVE",
"450 1 CURVE",
"524 90 LINE",
"555 156 OFFCURVE",
"566 229 OFFCURVE",
"566 298 CURVE SMOOTH",
"566 444 OFFCURVE",
"488 526 OFFCURVE",
"414 526 CURVE SMOOTH",
"336 526 OFFCURVE",
"280 478 OFFCURVE",
"220 385 CURVE",
"189 299 LINE"
);
},
{
closed = 1;
nodes = (
"472 0 LINE",
"524 90 LINE",
"316 90 LINE",
"264 0 LINE"
);
}
);
width = 630;
}
);
unicode = 05DE;
},
{
glyphname = "finalnun-hb";
lastChange = "2019-10-03 20:26:36 +0000";
layers = (
{
backgroundImage = {
crop = "{{0, 0}, {332, 1000}}";
imagePath = "../../../../fontDesign/Calligraphy/Calligraphy in Glyphs/img/img/finalnun-hb.jpg";
locked = "1";
transform = "{1, 0, 0, 1, -12, -265}";
};
layerId = "4B1D62E6-7BFF-465E-AFDB-BC9AB18DC79E";
paths = (
{
closed = 1;
nodes = (
"109 397 LINE SMOOTH",
"148 361 OFFCURVE",
"161 331 OFFCURVE",
"159 228 CURVE SMOOTH",
"149 -246 LINE",
"225 -170 LINE",
"234 280 LINE SMOOTH",
"236 380 OFFCURVE",
"226 428 OFFCURVE",
"174 476 CURVE SMOOTH",
"93 552 LINE",
"40 461 LINE"
);
}
);
width = 313;
}
);
unicode = 05DF;
},
{
glyphname = "nun-hb";
lastChange = "2019-10-03 20:59:38 +0000";
layers = (
{
backgroundImage = {
crop = "{{0, 0}, {338, 1000}}";
imagePath = "../../../../fontDesign/Calligraphy/Calligraphy in Glyphs/img/img/nun-hb.jpg";
locked = "1";
transform = "{1, 0, 0, 1, 0, -263}";
};
layerId = "4B1D62E6-7BFF-465E-AFDB-BC9AB18DC79E";
paths = (
{
closed = 1;
nodes = (
"159 398 LINE SMOOTH",
"206 358 OFFCURVE",
"225 346 OFFCURVE",
"225 247 CURVE SMOOTH",
"225 189 OFFCURVE",
"234 117 OFFCURVE",
"214 19 CURVE",
"275 90 LINE",
"295 142 OFFCURVE",
"290 222 OFFCURVE",
"290 302 CURVE SMOOTH",
"290 410 OFFCURVE",
"273 437 OFFCURVE",
"219 483 CURVE SMOOTH",
"137 552 LINE",
"84 461 LINE"
);
},
{
closed = 1;
nodes = (
"223 0 LINE",
"275 90 LINE",
"84 90 LINE",
"32 0 LINE"
);
}
);
width = 370;
}
);
unicode = 05E0;
},
{
glyphname = "samekh-hb";
lastChange = "2019-10-03 20:26:30 +0000";
layers = (
{
backgroundImage = {
crop = "{{0, 0}, {645, 1000}}";
imagePath = "../../../../fontDesign/Calligraphy/Calligraphy in Glyphs/img/img/samekh-hb.jpg";
locked = "1";
transform = "{1, 0, 0, 1, -20, -244}";
};
layerId = "4B1D62E6-7BFF-465E-AFDB-BC9AB18DC79E";
paths = (
{
closed = 1;
nodes = (
"144 568 LINE",
"103 500 LINE",
"122 420 LINE",
"163 488 LINE"
);
},
{
closed = 1;
nodes = (
"419 410 LINE SMOOTH",
"467 410 OFFCURVE",
"494 403 OFFCURVE",
"494 344 CURVE SMOOTH",
"494 282 OFFCURVE",
"490 225 OFFCURVE",
"459 129 CURVE",
"551 255 LINE",
"569 291 OFFCURVE",
"578 354 OFFCURVE",
"578 413 CURVE SMOOTH",
"578 473 OFFCURVE",
"542 500 OFFCURVE",
"467 500 CURVE SMOOTH",
"103 500 LINE",
"50 410 LINE"
);
},
{
closed = 1;
nodes = (
"161 98 LINE SMOOTH",
"178 9 OFFCURVE",
"202 -15 OFFCURVE",
"245 -15 CURVE SMOOTH",
"341 -15 OFFCURVE",
"443 39 OFFCURVE",
"515 169 CURVE",
"551 255 LINE",
"460 146 OFFCURVE",
"374 89 OFFCURVE",
"280 89 CURVE SMOOTH",
"241 89 OFFCURVE",
"230 105 OFFCURVE",
"221 158 CURVE SMOOTH",
"166 478 LINE",
"100 412 LINE"
);
}
);
width = 626;
}
);
unicode = 05E1;
},
{
glyphname = "ayin-hb";
lastChange = "2019-10-03 20:59:26 +0000";
layers = (
{
backgroundImage = {
crop = "{{0, 0}, {648, 1000}}";
imagePath = "../../../../fontDesign/Calligraphy/Calligraphy in Glyphs/img/img/ayin-hb.jpg";
locked = "1";
transform = "{1, 0, 0, 1, -45, -250}";
};
layerId = "4B1D62E6-7BFF-465E-AFDB-BC9AB18DC79E";
paths = (
{
closed = 1;
nodes = (
"396 360 OFFCURVE",
"402 242 OFFCURVE",
"355 124 CURVE",
"438 239 LINE",
"483 343 OFFCURVE",
"473 450 OFFCURVE",
"437 527 CURVE",
"361 444 LINE"
);
},
{
closed = 1;
nodes = (
"170 -46 OFFCURVE",
"286 5 OFFCURVE",
"397 162 CURVE",
"438 239 LINE",
"339 144 OFFCURVE",
"238 67 OFFCURVE",
"87 30 CURVE",
"50 -69 LINE"
);
},
{
closed = 1;
nodes = (
"139 317 OFFCURVE",
"185 190 OFFCURVE",
"194 33 CURVE",
"250 128 LINE",
"246 258 OFFCURVE",
"209 394 OFFCURVE",
"125 523 CURVE",
"61 423 LINE"
);
}
);
width = 535;
}
);
unicode = 05E2;
},
{
glyphname = "finalpe-hb";
lastChange = "2019-10-03 20:58:58 +0000";
layers = (
{
backgroundImage = {
crop = "{{0, 0}, {628, 1000}}";
imagePath = "../../../../fontDesign/Calligraphy/Calligraphy in Glyphs/img/img/finalpe-hb.jpg";
locked = "1";
transform = "{1, 0, 0, 1, -40, -233}";
};
layerId = "4B1D62E6-7BFF-465E-AFDB-BC9AB18DC79E";
paths = (
{
closed = 1;
nodes = (
"267 394 LINE SMOOTH",
"363 363 OFFCURVE",
"384 332 OFFCURVE",
"384 198 CURVE SMOOTH",
"384 62 OFFCURVE",
"384 -52 OFFCURVE",
"372 -250 CURVE",
"448 -174 LINE",
"460 24 OFFCURVE",
"460 137 OFFCURVE",
"460 273 CURVE SMOOTH",
"460 399 OFFCURVE",
"413 452 OFFCURVE",
"315 484 CURVE SMOOTH",
"176 530 LINE",
"123 440 LINE"
);
},
{
closed = 1;
nodes = (
"38 261 OFFCURVE",
"59 201 OFFCURVE",
"198 155 CURVE",
"246 246 LINE",
"114 297 OFFCURVE",
"99 342 OFFCURVE",
"200 515 CURVE",
"123 440 LINE"
);
}
);
width = 545;
}
);
unicode = 05E3;
},
{
glyphname = "pe-hb";
lastChange = "2019-10-03 20:49:54 +0000";
layers = (
{
backgroundImage = {
crop = "{{0, 0}, {701, 1000}}";
imagePath = "../../../../fontDesign/Calligraphy/Calligraphy in Glyphs/img/img/pe-hb.jpg";
locked = "1";
transform = "{1, 0, 0, 1, -70, -230}";
};
layerId = "4B1D62E6-7BFF-465E-AFDB-BC9AB18DC79E";
paths = (
{
closed = 1;
nodes = (
"294 406 LINE SMOOTH",
"367 375 OFFCURVE",
"394 342 OFFCURVE",
"394 238 CURVE SMOOTH",
"394 138 OFFCURVE",
"394 92 OFFCURVE",
"375 14 CURVE",
"451 90 LINE",
"470 167 OFFCURVE",
"470 213 OFFCURVE",
"470 313 CURVE SMOOTH",
"470 409 OFFCURVE",
"417 462 OFFCURVE",
"341 496 CURVE SMOOTH",
"194 561 LINE",
"141 471 LINE"
);
},
{
closed = 1;
nodes = (
"399 0 LINE",
"451 90 LINE",
"87 90 LINE",
"35 0 LINE"
);
},
{
closed = 1;
nodes = (
"38 292 OFFCURVE",
"59 232 OFFCURVE",
"198 186 CURVE",
"246 277 LINE",
"114 328 OFFCURVE",
"99 362 OFFCURVE",
"218 546 CURVE",
"141 471 LINE"
);
}
);
width = 550;
}
);
unicode = 05E4;
},
{
glyphname = "finaltsadi-hb";
lastChange = "2019-10-03 20:49:08 +0000";
layers = (
{
backgroundImage = {
crop = "{{0, 0}, {566, 1000}}";
imagePath = "../../../../fontDesign/Calligraphy/Calligraphy in Glyphs/img/img/finaltsadi-hb.jpg";
locked = "1";
transform = "{1, 0, 0, 1, 0, -242}";
};
layerId = "4B1D62E6-7BFF-465E-AFDB-BC9AB18DC79E";
paths = (
{
closed = 1;
nodes = (
"78 374 OFFCURVE",
"168 281 OFFCURVE",
"229 201 CURVE SMOOTH",
"296 114 OFFCURVE",
"356 5 OFFCURVE",
"395 -237 CURVE",
"474 -136 LINE",
"431 106 OFFCURVE",
"343 216 OFFCURVE",
"284 295 CURVE SMOOTH",
"231 366 OFFCURVE",
"149 447 OFFCURVE",
"127 540 CURVE",
"64 443 LINE"
);
},
{
closed = 1;
nodes = (
"400 398 OFFCURVE",
"394 298 OFFCURVE",
"309 164 CURVE",
"418 270 LINE",
"487 389 OFFCURVE",
"485 475 OFFCURVE",
"436 544 CURVE",
"351 469 LINE"
);
}
);
width = 565;
}
);
unicode = 05E5;
},
{
glyphname = "tsadi-hb";
lastChange = "2019-10-03 20:50:15 +0000";
layers = (
{
backgroundImage = {
crop = "{{0, 0}, {625, 1000}}";
imagePath = "../../../../fontDesign/Calligraphy/Calligraphy in Glyphs/img/img/tsadi-hb.jpg";
locked = "1";
transform = "{1, 0, 0, 1, -50, -240}";
};
layerId = "4B1D62E6-7BFF-465E-AFDB-BC9AB18DC79E";
paths = (
{
closed = 1;
nodes = (
"113 352 OFFCURVE",
"197 288 OFFCURVE",
"269 227 CURVE SMOOTH",
"338 168 OFFCURVE",
"398 111 OFFCURVE",
"402 39 CURVE",
"451 124 LINE",
"444 189 OFFCURVE",
"406 240 OFFCURVE",
"337 294 CURVE SMOOTH",
"257 357 OFFCURVE",
"179 424 OFFCURVE",
"127 540 CURVE",
"69 440 LINE"
);
},
{
closed = 1;
nodes = (
"379 0 LINE",
"431 90 LINE",
"107 90 LINE",
"55 0 LINE"
);
},
{
closed = 1;
nodes = (
"370 398 OFFCURVE",
"363 318 OFFCURVE",
"319 224 CURVE",
"398 303 LINE",
"457 392 OFFCURVE",
"455 475 OFFCURVE",
"406 544 CURVE",
"321 469 LINE"
);
}
);
width = 508;
}
);
unicode = 05E6;
},
{
glyphname = "qof-hb";
lastChange = "2019-10-03 20:58:54 +0000";
layers = (
{
backgroundImage = {
crop = "{{0, 0}, {657, 1000}}";
imagePath = "../../../../fontDesign/Calligraphy/Calligraphy in Glyphs/img/img/qof-hb.jpg";
locked = "1";
transform = "{1, 0, 0, 1, -40, -234}";
};
layerId = "4B1D62E6-7BFF-465E-AFDB-BC9AB18DC79E";
paths = (
{
closed = 1;
nodes = (
"166 568 LINE",
"123 500 LINE",
"142 420 LINE",
"183 488 LINE"
);
},
{
closed = 1;
nodes = (
"415 410 LINE",
"463 410 OFFCURVE",
"485 400 OFFCURVE",
"485 342 CURVE SMOOTH",
"485 276 OFFCURVE",
"483 221 OFFCURVE",
"456 156 CURVE",
"552 278 LINE",
"567 322 OFFCURVE",
"569 364 OFFCURVE",
"569 410 CURVE SMOOTH",
"569 470 OFFCURVE",
"538 500 OFFCURVE",
"467 500 CURVE",
"123 500 LINE",
"70 410 LINE"
);
},
{
closed = 1;
nodes = (
"348 12 OFFCURVE",
"433 58 OFFCURVE",
"511 191 CURVE",
"552 278 LINE",
"478 184 OFFCURVE",
"407 123 OFFCURVE",
"312 90 CURVE",
"275 -9 LINE"
);
},
{
closed = 1;
nodes = (
"152 181 OFFCURVE",
"142 -56 OFFCURVE",
"137 -250 CURVE",
"213 -175 LINE",
"215 47 OFFCURVE",
"224 240 OFFCURVE",
"183 499 CURVE",
"121 410 LINE"
);
}
);
width = 620;
}
);
unicode = 05E7;
},
{
glyphname = "resh-hb";
lastChange = "2019-10-03 20:55:33 +0000";
layers = (
{
backgroundImage = {
crop = "{{0, 0}, {495, 1000}}";
imagePath = "../../../../fontDesign/Calligraphy/Calligraphy in Glyphs/img/img/resh-hb.jpg";
locked = "1";
transform = "{1, 0, 0, 1, 0, -267}";
};
layerId = "4B1D62E6-7BFF-465E-AFDB-BC9AB18DC79E";
paths = (
{
closed = 1;
nodes = (
"137 568 LINE",
"96 500 LINE",
"115 420 LINE",
"156 488 LINE"
);
},
{
closed = 1;
nodes = (
"271 410 LINE SMOOTH",
"354 410 OFFCURVE",
"365 390 OFFCURVE",
"365 298 CURVE SMOOTH",
"365 -38 LINE",
"441 38 LINE",
"441 373 LINE SMOOTH",
"441 460 OFFCURVE",
"408 500 OFFCURVE",
"319 500 CURVE SMOOTH",
"96 500 LINE",
"43 410 LINE"
);
}
);
width = 520;
}
);
unicode = 05E8;
},
{
glyphname = "shin-hb";
lastChange = "2019-10-03 20:55:40 +0000";
layers = (
{
backgroundImage = {
crop = "{{0, 0}, {744, 1000}}";
imagePath = "../../../../fontDesign/Calligraphy/Calligraphy in Glyphs/img/img/shin-hb.jpg";
locked = "1";
transform = "{1, 0, 0, 1, -10, -232}";
};
layerId = "4B1D62E6-7BFF-465E-AFDB-BC9AB18DC79E";
paths = (
{
closed = 1;
nodes = (
"120 379 OFFCURVE",
"111 392 OFFCURVE",
"127 274 CURVE SMOOTH",
"151 98 LINE SMOOTH",
"163 7 OFFCURVE",
"192 -15 OFFCURVE",
"235 -15 CURVE SMOOTH",
"342 -15 OFFCURVE",
"455 39 OFFCURVE",
"531 169 CURVE",
"571 242 LINE",
"469 143 OFFCURVE",
"374 89 OFFCURVE",
"270 89 CURVE SMOOTH",
"238 89 OFFCURVE",
"216 105 OFFCURVE",
"211 158 CURVE SMOOTH",
"193 340 LINE SMOOTH",
"181 459 OFFCURVE",
"174 477 OFFCURVE",
"115 552 CURVE",
"62 461 LINE"
);
},
{
closed = 1;
nodes = (
"541 360 OFFCURVE",
"547 242 OFFCURVE",
"500 124 CURVE",
"583 239 LINE",
"628 343 OFFCURVE",
"618 450 OFFCURVE",
"598 543 CURVE",
"522 460 LINE"
);
},
{
closed = 1;
nodes = (
"330 390 OFFCURVE",
"343 307 OFFCURVE",
"298 227 CURVE",
"378 310 LINE",
"428 392 OFFCURVE",
"415 468 OFFCURVE",
"376 544 CURVE",
"291 469 LINE"
);
},
{
closed = 1;
nodes = (
"240 221 LINE",
"174 133 LINE",
"298 227 LINE",
"391 334 LINE"
);
}
);
width = 685;
}
);
unicode = 05E9;
},
{
glyphname = "tav-hb";
lastChange = "2019-10-03 20:59:44 +0000";
layers = (
{
backgroundImage = {
crop = "{{0, 0}, {688, 1000}}";
imagePath = "../../../../fontDesign/Calligraphy/Calligraphy in Glyphs/img/img/tav-hb.jpg";
locked = "1";
transform = "{1, 0, 0, 1, -20, -258}";
};
layerId = "4B1D62E6-7BFF-465E-AFDB-BC9AB18DC79E";
paths = (
{
closed = 1;
nodes = (
"197 568 LINE",
"156 500 LINE",
"179 420 LINE",
"220 488 LINE"
);
},
{
closed = 1;
nodes = (
"412 410 LINE SMOOTH",
"495 410 OFFCURVE",
"506 390 OFFCURVE",
"506 298 CURVE SMOOTH",
"506 -38 LINE",
"582 38 LINE",
"582 373 LINE SMOOTH",
"582 460 OFFCURVE",
"549 500 OFFCURVE",
"460 500 CURVE SMOOTH",
"156 500 LINE",
"103 410 LINE"
);
},
{
closed = 1;
nodes = (
"185 336 OFFCURVE",
"211 183 OFFCURVE",
"210 20 CURVE",
"262 90 LINE",
"277 192 OFFCURVE",
"262 378 OFFCURVE",
"223 499 CURVE",
"157 417 LINE"
);
},
{
closed = 1;
nodes = (
"210 0 LINE",
"262 90 LINE",
"110 90 LINE",
"58 0 LINE"
);
}
